/* XPM */
static char * dirty_rock_wall_xpm[] = {
"64 64 26 1",
" 	c #545454",
".	c #484848",
"+	c #DCDCDC",
"@	c #FCF440",
"#	c #C0C0C0",
"$	c #202020",
"%	c #383838",
"&	c #8C8C8C",
"*	c #A8A8A8",
"=	c #CCC400",
"-	c #D0D0D0",
";	c #E4D800",
">	c #B4B4B4",
",	c #7C7C7C",
"'	c #9C9C00",
")	c #707070",
"!	c #848400",
"~	c #646464",
"{	c #B4AC00",
"]	c #706C00",
"^	c #989898",
"/	c #585400",
"(	c #404000",
"_	c #2C2C2C",
":	c #ECECEC",
"<	c #FCF420",
"          .+@@@@@@@@#+@@@@+$%&*#@@@@@@@@=& $..........          ",
"          .+-;;;;;;*#-#;;;&$%&#>&=,,'''', %$%)''''!!,)~.........",
"&&&&&&&&$ .@-{{{{{{*-##''{~$%*+*&,&,]!!!, %$%'=;;=={#>*'''!!&&&&",
"-{{{>*&&$ .@-''!!!'***^!!' $%&#&&&**~!]!) %$%';{''',+=;;;==={,--",
"**{{{],)$ .@#'!!),!*^'&)!! $%.*{**&&,/~]  %$%';'',,&=,''''''{~&^",
">^]{''])$..@-'!!,*!^^'&^)!/$%.,{&{&**)~]%%%$]!=',,===,!'''!!~~{,",
">>,']!] $%.@-&!!,*!&,!^*&!/(%.]!*{*&&&*)%%%_!!=',&==',]''!~!~,!~",
"^**!]]..$_.@#*!!,*]^&^&&*!/((./]]]/%%%%%%%$/'/=!,*',',,!'!~!~*,~",
"&&&]) ..$_.=:*'!,&^&&&&*&! _(/.%%%%%%%%%$$/=!/']&']^',^]!!~]~&*&",
")))) .%%$_.=+&'!,,&&*&*&*] _$(/%__$$$$$__/=!/]!/'!&*',&)!]~~~~~~",
"  ...$$$$_.!+*]!,,,*^&&,&)~%$((/(.)<<**<<=!/']/&]]~~]   ].......",
"$$$$$____% /+-&]&^'&&*,&'& %$%()*<<==+--==='//&)~~ ./.%%%%%_____",
"_________% .*-&*&'!)&&^&!~ %$_%*<='{{)&*')/$%%%%%%%%%%%__$$$$$$$",
"%%%%%%%%%% .&-*&*!!)&,&*!  %$_.*=',{{~&&' ]/%__________%%%%%%%%%",
" .%%%%%%%% .)#&*^!!)*&*&] ).$_.*=!,&{{,&! /!/.    $.............",
"^^^^'''!^_$ .##!&!]!)&&&)~  $$.*=!,*{')&] %]'{{{! . ,^^^^^^^^^^^",
"---==='])%$ .&#]~!~!!)*&)&).$$.*=!,&']~*& %$%{{'!$.,#===+;;;;;;+",
"*^&{'''])%$ .)^~~!~]] &) ) .$$.*!,&)]]~   %$%'!'!$.^===,''''''!)",
"*&*{'''])%$. .^^)!~// ) ) ._$$_*&)&)/%%%%%%$~'!! $.^==,^''''''!)",
"*{&{'''] %$. .~  (((((%_$$$$$$_&)%%%$$$$$$$$~'!] $.^{,&^''''''! ",
"*'*{'''] %$. .____$$$$$$$$$$$$_% %$$$$______&'!/ $.&{,*^*^'!!'] ",
"&',,'!'] %$%  .%$$$$$$$$.......&&^{{{{{, _%~#'!]~$.&{,&^&''/!'] ",
"&!,,']]~.%$%&======,&~%.~'====-={'{{{'''!$%,+'!!)$.,',^&*''/,'] ",
"&&**']&~.%$%=={{{{{),% .'==){'{'!!'''!'!]$%&+'!]!$.!',*^'']/*]/ ",
"^*&&]&) %%$%='!!!!!]~$ .'={&'!!!!!!!!]]]/$%&:'!/]$.'/)~!!!]/))  ",
"~~~~~ .%%%$%=!!!!!!]~$..'={='],!]!!!!] ]/$%&:'!(]$./%%.////..   ",
" ..%%%$$$$_%=!!!!!!]~$..'={!']*!~!!]!]~]($%&:'!//$]%$$$$$$$$$%%.",
"$$$$$$___...=!]~!!!]~$%.'={]']&!)!!~!]~/($%':'!/ $]]%%%%%%$$$$$$",
".~~)&^&&&&.$=!~^!!!]~($.!{{&'],!'!!)!]~/($%':'!/ $]''!] ]]]](%%%",
"~&>{{{{{{*)${!~&]!!]~($.!''^']&!!!])!])/($]'+'!/ $.]'''==!!.... ",
"~>{{!!!!!*.$!/~*,!!]~($.,!]*!&,]!!])!])/(/%'+'!/ $.)']'''{{{!^% ",
"~{'!!]]!!/)$:^*^*!!]~($% ]:**^&)!!),!]) %_%'+'!/ $.^))''!!]]],% ",
"~{'!]~)!!/)$:^&^*!!]~($_ *:*!*!&]!,,!!'.__]&-]!/ $.+**']!!/~)~%.",
"~{'!])&{!/ $+***^!!/~($_ &:#!!]&)!&*'!/.$/'&-*!]($.-*&']~!/~^~%.",
"~{'!]){'!/ $+#,^,!!/~($$.)-#!],^&]^{']/%$/.&-&]/($.#**'])!/)* %.",
"~!'!!!!!!/ $#+&^*]!/~(($. >+]&*&*&!']]/%$%.,*,](/%.**&'!)!/)^ %%",
"~+!]!]!!!/ $>+,*&&!/~(($% &#*&,!]/////(%$%. %%//.//) .        %%",
"~+>&!*!!!/ $^+^,**!/~ ($% .&&!////$(]/($$%. .]]/]  $$$$$$$$$$$$%",
"~+>&!^!]!/ $,+'^*&!/~ ($_..%___$$]__]]/(_%. ]]/./!]/..%%%%%%%%%%",
"~+>*]&!/!/ $ :!*&&!/~ /$_...%%%%%!..(!!]]]!!]/,,,]!''',,,,,,,,% ",
"~+>&&*!]!/ $.:!&',!/~ /(_%~,,,,,,{!,,/!'{'!]*>>##==========!#,% ",
"~->**^!]!/$_.:]&!&!/~ //$%{#####==='##======================!~_.",
"~->'*&!]/ $_.:&*]^!/~ /](${;;;;;;;;;*:+{{{{{{{{{{{{{{{{{{'!!, _.",
"~#>'&*!]& $%.+**(*!/~ (/]!'{;'''''''!&*#''''!]]]!''''''''!))) _%",
".#&'*&]/) $%.-&&*&!/~ %/]]/&&&'!''!'!)**'!''])))!'''!')'!])&) _%",
".>*'!&   $_%.>*&&*](~ %/]/(#+#']'']'!)*&']'!])&^&!'']'&']],*) _%",
".,,!]    $_%.^^*&&&)~ %(/]_>+-']'']'])'*])']),&&*&'!]'=']~&^) $%",
".%$]/    $%..,~~~~~~  %$(/]*+-']'']!/)'],^'])&{{&*'])!]']~,,) $%",
"   !/$$_$_%.%%%%%%%%%%%$$((&->']!!]//)]])^'])*!])&'])],!]~,,) $%",
"...']].___%.%%$$$$$$$$$$$$_&^)!)//)))&*))&!])&]]~*!]),*]/~&^) $%",
".,*==='&~.. %%____________% .%/_____ )),&,]/),,~~,]/~,,,~~,,~ $%",
".*=;;;;;''*&)~ .%%%%%%%%%%. ..%%%%%%_.    //      //         $_%",
".*=;{&{{{{{;;;;;;;;;;;;,,)~~  .....%%_____((______(($$$$$$$$$_%.",
".*=;{&={{!~{{{{{{{{{{{{{!&#*****&. .%%%%%]/%%_____/(________%%..",
".*=;{&={{!~,={{&{{{]!{{{!,#+++-#,%. ...%!]%%%%%%%%]/%%%%%%%%... ",
".*-;{&=*{!~^={{{{={!,={{!,*&***,~$% .!{{{~...   ]{'!]]/.....    ",
".*#*{,,,{]~*={!{&={!,=]{!,*&***~ $%..{!!!~++>  '======']-#>^,.. ",
".*&~~~~~!/~~!/~~~!/~~/!!]~~~~~~  %$%.~!!]~>>>~ ='!'''!!']*&*+^$ ",
".&~%%%%%/%%%/%%%%///////%%%%%%%%%%$_.>!]~^~^&~.=!~'!~!~!]&*&* $ ",
".%$$$$$$$$$$$$$$((((((((($$$$$$$$$$_.%(/ ~~~~~.~~^'!~~,!]**&& $ ",
" .%%%_____________((__((____________% ((%$$$$$%   ]/   ]/     $ ",
"    ........%%%%%%//%%//%%%%%%%%%%%%%    %%%%%%  $(($$$(($$$$$$ ",
"%%%%%%%%%%%%%%%%%%%%%%%%%%%%%%%%%%%%%%%%%%%%%%%%%%%%%%%%%%%%%%%%",
"________________________________________________________________"};
