/* XPM */
static char * hitler_xpm[] = {
"64 64 60 1",
" 	c #28200C",
".	c #403018",
"+	c #6C4824",
"@	c #5C4020",
"#	c #905C34",
"$	c #543C1C",
"%	c #382C14",
"&	c #483818",
"*	c #744C28",
"=	c #B4AC00",
"-	c #9C9C00",
";	c #B45400",
">	c #FC8820",
",	c #FC7800",
"'	c #E46C00",
")	c #545454",
"!	c #646464",
"~	c #707070",
"{	c #989898",
"]	c #7C7C7C",
"^	c #484848",
"/	c #8C8C8C",
"(	c #202020",
"_	c #383838",
":	c #DC8854",
"<	c #C87C4C",
"[	c #FC9C60",
"}	c #FCB080",
"|	c #BC7848",
"1	c #2C2C2C",
"2	c #FCB890",
"3	c #FCBC9C",
"4	c #D08050",
"5	c #FCC4A4",
"6	c #F0945C",
"7	c #A86840",
"8	c #FCA470",
"9	c #B47044",
"0	c #9C6038",
"a	c #885830",
"b	c #80502C",
"c	c #FCD4BC",
"d	c #E88C58",
"e	c #CCC400",
"f	c #E4D800",
"g	c #A0643C",
"h	c #DCDCDC",
"i	c #D40000",
"j	c #D0D0D0",
"k	c #7C0000",
"l	c #C0C0C0",
"m	c #A80000",
"n	c #980000",
"o	c #A40000",
"p	c #FC0000",
"q	c #880000",
"r	c #700000",
"s	c #640000",
"t	c #4C0000",
"u	c #9C4C00",
" ...............................................................",
".+++++++++++++++++++++++++++++++++++++++++++++++++++++++++++++++",
"@###############################################################",
" $$$$$$$%$ %$$$$$$$$$$$$$$%$ %$$$$%$ %$$$$$$%$ %$$$$$$$$$$$%$ %$",
".&&+****$# $#@&&&&**&+&+&&$# $#*&*$# $#@&&&@$# $#&*&&*&*&**$# $#",
".&&+***@$# $#+&&&$**&+&+&&$# $#*&*$# $#*@&@*$# $#&*&&*&*&**$# $#",
".&&@**=====================================================-; $#",
".$&$+*=>>>>>>>>>>>>>>>>>>>>>,,,,,,,,,,,,,,,,,,,''''''''''';;$ $#",
" +&&@*=>&&&&&&&&&&&&&&&&&&&&&&&&&&&&&&&&&&&&&@@@@@@@@@@@@@-;$ $#",
" +&$&@=>&))))))))))))))))))))))!!!!!!!!!!!!!!!!!!!~~~~~~~~=;$ $#",
" *$&&$=>&){{{{{{{{{{{{{{{{{{{{{{{{{{{{{{{{{{{{{{{{{{{{{{{{=;$ $#",
" *$&&&=>&){{{{{{{{{{{{{{{{{{]!^^^^^^^]/{{{{{{{{{{{{{{{{{{{=;$ $#",
" +*&&&=>&){{{{{{{{{{{{{{{{{)^^(((((((((^^]{{{{{{{{{{{{{{{{=;$ $#",
" +*$&&=>&){{{{{{{{{{{{{{{{)^((__)_____(((^{{{{{{{{{{{{{{{{=;$ $#",
" @**&$=>&){{{{{{{{{{{{{{{:<~___))/])_^)__(({{{{{{{{{{{{{{{=;$ $#",
" $***$=>&){{{{{{{{{{{{{{{[}}}~<|~]/!1!~!_1(^{{{{{{{{{{{{{{=;$ $#",
" &+**@=>&){{{{{{{{{{{{{{:}223}~4|))_1^)^^1((!{{{{{{{{{{{{{=;$ $#",
" &+***=>&){{{{{{{{{{{{{{[}225}~4____1____1((^{{{{{{{{{{{{{=;$ $#",
".&@+**=>&){{{{{{{{{{{{{[}}25}}}6____1____1((1{{{{{{{{{{{{{=;$ $#",
".&$+**=>&){{{{{{{{{{{{{<7|85}}}}900ab___1(((1{{{{{{{{{{{{{=;$ $#",
".&&@**=>&!{{{{{{{{{{{{{{%%a|5}}2867777b_(((11{{{{{{{{{{{{{=;$ $#",
".&&$**=>&!{{{{{{{{{{{{{2<^|86}5866:667#@(((1^{{{{{{{{{{{{{=;$ $#",
".$&$@$=>&!{{{{{{{{{{{{2c}:8}}}866d[@76@@((1^~{{{{{{{{{{{{{e;. $#",
".$&&$&=>&!{{{{{{{{{{{5c58[:2}866d:84b8@@((1~{{{{{{{{{{{{{{e;. $#",
"%$&&&&=,&!{{{{{{{{{{{d|||<[:[[[d::476|@@(1^{{{{{{{{{{{{{{{e;. $#",
" +&&&&=,&!{{{{{{{{{{{{{(@8:8[[6d:<[84*@@(1~{{{{{{{{{{{{{{{e;. $#",
" +&&&&=,&!{{{{{{{{{{{{{@0}8686d<|74a***@@^{{{{{{{{{{{{{{{{e;. $#",
" +$&&&=,&!{{{{{{{{{{{{{2[[}866<770|:##*@@~{{{{{{{{{{{{{{{{e;. $#",
" @$&&&=,&!{{{{{{{{{{{{{486}8[d<70098:|a@@{{{{{{{{{{{{{{{{{e;. $#",
" $+&&&=,&!{{{{{{{{{{{{{828:[:|0#098886|7**{{{{{{{{{{{{{{{{f;. $#",
" $+$&&=,&!{{{{{{{{{{{{{68:|70##09:88||#b**]/{{{{{{{{{{{{{{f;. $#",
" &@$&+=,&!{{{{{{{{{{{{{{{{0aaa09:8||###bb$**~/{{{{{{{{{{{{f;. $#",
" &$+$+=,&!{{{{{{{{{{{{{{{{{{90998|##0#a*$bb***~/{{{{{{{{{{f;. $#",
" &$+$+=,&!{{{{{{{{{{{{{{{{/49948##000*$bggg##ba*~/{{{{{{{{f;. $#",
" &&@+@=,&!{{{{{{{{{{{{{{//4|4490099*$bg999999900a*~{{{{{{{f;. $#",
" &&$@$=,&!{{{{{{{{{{{{{/~44|4<g99a$bg999999999990a*]{{{{{{f;. $#",
"%&&&$&=,&!{{{{{{{{{{{{/~*4g44<<9*$0999970b00999990b*]{{{{{f;. $#",
".&&&&&=,&!{{{{{{{{{{{{~b*4g44<9**g99997gbb0000aaaaab*{{{{{f;. $#",
".&&&&&=,&!{{{{{{{{{{{/bb*4bg49**999999g#*b00a000aaaa*{{{{{f;. $#",
".$&&&&=,&!{{{{{{{{{{{~##*0*g*$g9999997#b@@9999900abb@{{{{{f;. $#",
" $&&&&=,&!{{{{{{{{{{{0##*b*gg#9999999gb@@994999090**&{{{{{f;. $#",
" +$&&&=,&!{{{{{{{{{{/0##@*agg999999977b@9949940#90*@&{{{{{f;. $#",
" +$&&&=,&!{{{{{{{{{{~0##**gg||<<99990b@@9499490#9a*@&{{{{{f;. $#",
" +@$&$=,&!{{{{{{{{{{g0##*ag||<<|||*0a@@0099940#g9a*@&{{{{{f;. $#",
" ++$$$=,@!{{{{{{{{{/gg#**gg||<|||*0aa@{hh0449g#99b@&){{{{{f;. $#",
" @+@$@=,@!{{{{{{{{{~g###*gg#*&&||*a@@{11)hi4*0#99*@&~{{{{{f;. $#",
" $++@+=,@!{{{{{{{{/00##*ag9||&&**a@{1h1jhhhi*#099*@&]{{{{{f;. $#",
" $++@+='@~{{{{{{{{~777#*gg||<b7aa@k{)1111)lmnn#99*&@{{{{{{f;. $#",
" &+***='@~{{{{{{{{0077**g9||<#7aakophhh1h1{mnqq#a*&@{{{{{{f;. $#",
" &@***='@~{{{{{{{{97##*bg9|||7a@0nni{11)h{]nqqkr*&@@{{{{{{f;. $#",
" &$+**='@~{{{{{{{{9#7#g#g9|||a@d|<b$i{ll{]nqqkrs*&@@{{{{{{f;. $#",
" &$+**='@~{{{{{{{:<9#*900aaa|d<gd<<b$iimnnqqkrsst@@*{{{{{{f;. $#",
" &&@*+='@~{{{{{{{:4<99900000dddggd|99$$nnqqkrsst@@**{{{{{{f;. $#",
"%&&$++='@~{{{{{{{{:44::000<<dd<d|dd900$$qqkrsst@@@*7{{{{{{f;. $#",
"%&&$+@='@~{{{{{{{{{::{::99|dd||<ddd<00*$qkrsst@@aa7|{{{{{{f;. $#",
".&&&@@='@~{{{{{{{{{{{{{{<4444|700<<<0a+$$rst@@@a77|{{{{{{{f;. $#",
".&&&$$='@~{{{{{{{{{{{{{{{dd4444444444|aa(k(*a77|{{{{{{{{{{f;. $#",
"&$&&&&='@~{{{{{{{{{{{{{{{{{{{{{{{{{{{{{{{{{{{{{{{{{{{{{{{{f;. $#",
"&$&&&&=''=============eeeeeeeeeeeffffffffffffffffffffffffff;. $#",
"&@&&&&=;;;;;;;;;;;;;;;;;;;;;;;;;;;;;;;;;;;;;;;;;;;;;;;;;;;;;. $#",
"&@$&&&u$$$$$$...........................%%%%................. $#",
"&+$&&&$+$$  $%%%.&.%%%%@@&$$  $@@@%%  $%%%%%&&  &&&&&%%%%%&&  $#",
"&+@&&&$+$# $#&&&&@&&&&+**@$# $#+@&$# $#&&&&&$# $#@&*@&&&&&&$# $#",
"%@@@@@@@$# $#@&&&&&&&@@@@@$# $#@&&$# $#@&&&@$# $#@&@@&&&&&&$# $#"};
