/* XPM */
static char * map_wall_xpm[] = {
"64 64 73 1",
" 	c #484848",
".	c #545454",
"+	c #989898",
"@	c #A8A8A8",
"#	c #B4B4B4",
"$	c #C0C0C0",
"%	c #D0D0D0",
"&	c #7C7C7C",
"*	c #8C8C8C",
"=	c #C87C4C",
"-	c #BC7848",
";	c #B47044",
">	c #A86840",
",	c #9C6038",
"'	c #5C4020",
")	c #6C4824",
"!	c #744C28",
"~	c #646464",
"{	c #28200C",
"]	c #1C1C1C",
"^	c #00002C",
"/	c #045800",
"(	c #044C00",
"_	c #280040",
":	c #707070",
"<	c #202020",
"[	c #004040",
"}	c #044000",
"|	c #048800",
"1	c #047C00",
"2	c #007C7C",
"3	c #000040",
"4	c #00004C",
"5	c #000058",
"6	c #046400",
"7	c #04B000",
"8	c #20FC20",
"9	c #00E000",
"0	c #00D400",
"a	c #00EC00",
"b	c #00CCCC",
"c	c #04C800",
"d	c #005858",
"e	c #000064",
"f	c #00007C",
"g	c #000098",
"h	c #000088",
"i	c #440070",
"j	c #008484",
"k	c #007070",
"l	c #047000",
"m	c #000070",
"n	c #5C5C5C",
"o	c #04BC00",
"p	c #40FC40",
"q	c #54FC54",
"r	c #00FC00",
"s	c #049800",
"t	c #0000A8",
"u	c #500084",
"v	c #60FC5C",
"w	c #80FC7C",
"x	c #00A800",
"y	c #0000B0",
"z	c #0000A4",
"A	c #343434",
"B	c #383838",
"C	c #2C2C2C",
"D	c #404040",
"E	c #04A400",
"F	c #400040",
"G	c #340058",
"H	c #382C14",
" . +@#$%%%%%%%%%%%%%%%%%%%%%$#@+ . +@#$%%%%%%%%%%%%%%%%%%%%%$#@+",
" . &$$$$$$$$$$$$####$#$#$#$#$#$* . &$$$$$$$$$$$$####$#$#$#$#$#$*",
" . &$$#$$$##$########$#$#$###$#* . &$$#$$$##$########$#$#$###$#*",
" . &##$##$$###@#####$#$#$####@#* . &##$##$$###@#####$#$#$####@#*",
" . &#$####$##@#@$##$###$#$#$@#@* . &#$####$##@#@$##$###$#$#$@#@*",
" . &#$####$##@#@$##$###$#$#$@#@* . &#$####$##@#@$##$###$#$#$@#@*",
" . &##$=----------;;;;;;;;>>>>>>>>,,,,,,,,,,,,,,,,,,,,,,,,'@#@@*",
" . &###-''''''''''''''''''''''''''''''''''''''''''''''')!,'~@@#*",
" . &##@-'{]^]////]^^]]]///////(((((((((((((((]^^^^^^^^^^_,':#@@*",
" . &@+#-']^^^<[[<<^]}/||||||||1122||||||||/[<34555555555_,'~@+@*",
" . &@*+;'^^4445[[[61789099000abbaabbccccccdee[efggggggghi,'.+@+*",
" . &***;'^^4444[d|7a9999999099aaaaabbbbbbbjkk1lmggggggghi,'n*@+*",
" . &+*+;'^^44[[1|o999999900000pqqp8qq8aarraaaasdfhggtttgu,'.+***",
" . ~~~~;'][ddl1|799900999999pvwwvqpp88rraa9aaaxkddhgtyyzu,'A~~~~",
"  BCCCC;'/s777a8999999aa8pqqwwwwwvp888rraa9a89a7|1fgyyyzu,']CCCB",
"       ;'/sa8p88a999a88ppqvvwwwwwvpp8rr8a99a8w97kdfgyyyzu,'C    ",
".......>'/sp8888a9998pppppqqqqvvvqpp8ra9990aa7kdmhggtytgu,'A....",
"%%%%%%%>'/srra888a9a8888888p8ppppp888a99a0xsddmhggggttghi,'*%%%%",
"###$#$#>'/srr88888aa88aaaa888rvwp8aa887kdd1dmhgggggggggmD,'&$###",
"####$#$>'/srr88a9aaa889999aaaravpa987kdmfmefggggggggghdd7,':####",
"###$#$#>'/saaa99a7s|777aaa7|dd|7aa7kdehhggggggggggghdd777,'~####",
"$#@####>'/s9r9a7|6[[[[d171[[5e[[dddeffhggggggggggfed77777,'~$#$$",
"@$@@#@#>'/s9apcs[[5ee55[[[5emmmemmffhhggggggggggge|777777,':@$@@",
"##$###$>']/|7aasd5eeeeeeeeemffffffffhgggggggggggh[|77oo77,':@$##",
"$#@####>']<[6|77|[eeeeeeemmmffffffffhgggggggggggh[|77cc77,'~$#$$",
"@$@@#@#>'^^43[[[[4eeeeeemmmfffffffffhgggggggggggge||7cco7,':@$@@",
"@@@@@#@>'^^4444555eeeeeemmfffffffffhhggggggggggggfd|E0c77,'~#@@@",
"+@#@#+@>'^^445eeeeeeeeeemmfffffffffhhgggggggggggghd|E0c77,':@@++",
"@++@+@@,'^^4455eeeeeeeemmmmffffffffhggggggggggggghd|E0c77,'~++@@",
"+*+*+*+,'^^44555eeeeeeeemmmfffffffffhggggggggggggfd|00c77,'n*@++",
"++*+*+*,'^^45555eeeeeeeemmmffffffffffhggggggggggmd|x0co77,'.@+++",
"~~~~~~~,'^^555eeeeeeeeeemffffffffffffhgggggggggmd|Eccc777,'<~~~~",
"CCCCCCC,'^^45eeeeeeeeeeeemfffffffffffhggggggghfd|occcc777,']CCCC",
"       ,'^^45eeeeeeeeeeeemfffffffffhhhgggghfddd|occccco7E,'C    ",
".......,'^^445eeeeeeeeeeeemffffffffhhhhhhfdd|777c00ccco7s,'A....",
" . +@#$,'^^4445eeeeeeeeeeemffffffffffme[dd|7occc000ccoo7s,'*$#@+",
" . &$$$,'^^4445eeeeeeeeeeemffffmmmee[[d1|7oocc000cccco77s,':$#$*",
" . &$$#,'^^4455eeeeeeeeeemmfffe[[[[d1|77cc00000ccccco7777,':#$#*",
" . &##$,'^^4455eeeeeeeemmmfffm[dl|E7occcc00990cocccco7777,':#@#*",
" . &#$#,'^^4445eeeeeeemffffffm[|occccc000000000c00cco7777,'&@#@*",
" . &##$,'^^4445eeeeeeemffffffm[|7oc0cc0000000000000oo7o77,'~#@@*",
" . &###,'^^44445eeeeeeemfffffm[d|7o77occcc0090ccccccccc77,'~@@#*",
" . &##@,']<[3445eeeeeeemffffffe[d|7777oooocc00ccccccccc77,':#@@*",
" . &@+#,'}l7[4455eeeeeemfffffffe5[l77bb777occoocccccccc77,'~@+@*",
" . &@*+,'}l7l[4445eeeemmffffffffm5[bb77bsbb7777ooccccoo77,'.+@+*",
" . &***,'}l77l[[[[55eemffffffffe5[l77EEbb7bEE7777occc7777,'n*@+*",
" . &+*+,'}lcc777E7d[[5emffffme5[d777o7777EbbbE7777oco7777,'.+***",
" . ~~~~,)}loo7ccc7777[4emmme5[d7777oco7777777b77777777777,'A~~~~",
" . BCCC,!}/ss7E7777777DFFGFFD777777E7E77777777b7777sss777,']CCCB",
"       ,,,,,,,,,,,,,,,,,,,,,,,,,,,,,,,,,,,,,,,,,,,,,,,,,,,'C    ",
".......'''''''''''''''''''''''''''''''''''''''''''''''''''HA....",
"%%%%%%%****&:~nCACn~:&*********************&:~nCACn~:&******%%%%",
"###$#$#$#$#$#$* . &$$$$$$$$$$$$####$#$#$#$#$#$* . &$$$$$$$$$$###",
"####$#$#$###$#* . &$$#$$$##$########$#$#$###$#* . &$$#$$$#######",
"###$#$#$####@#* . &##$##$$###@#####$#$#$####@#* . &##$##$$#@####",
"##$###$#$#$@#@* . &#$####$##@#@$##$###$#$#$@#@* . &#$####$##@$##",
"$#@####@#$@#@@* . &##$#####@#@$#$#@####@#$@#@@* . &##$#####@$#$$",
"@$@@#@#@@@@@@#* . &###$###@#@#@$@$@@#@#@@@@@@#* . &###$###@#@$@@",
"@@@@@#@$@@##@@* . &##@#@@@@@#@#@@@@@@#@$@@##@@* . &##@#@@@@@#@@@",
"+@#@#+@@@+@@+@* . &@+#+@@@@+@#@@+@#@#+@@@+@@+@* . &@+#+@@@@#@@++",
"@++@+@@@+@*+@+* . &@*+@+*@+@+@++@++@+@@@+@*+@+* . &@*+@+*@+@++@@",
"+*+*+*+*@*+*@+* . &***+*+*@*@+*@+*+*+*+*@*+*@+* . &***+*+*@+*@++",
"++*+*+*+*+*+*** . &+*+*+++*+**@+++*+*+*+*+*+*** . &+*+*+++**@+++",
"~~~~~~~~~~~~~~~ . ~~~~~~~~~~~~~~~~~~~~~~~~~~~~~ . ~~~~~~~~~~~~~~"};
