/* XPM */
static char * metal_door_xpm[] = {
"64 64 31 1",
" 	c #00A8A8",
".	c #20B4B4",
"+	c #48C0C0",
"@	c #005858",
"#	c #00A4A4",
"$	c #74C8C8",
"%	c #009898",
"&	c #FCFCFC",
"*	c #9CDCDC",
"=	c #008C8C",
"-	c #007C7C",
";	c #009C9C",
">	c #006C6C",
",	c #007070",
"'	c #D8F4F4",
")	c #008484",
"!	c #20B0B0",
"~	c #007878",
"{	c #700000",
"]	c #706C00",
"^	c #FCF400",
"/	c #D0D0D0",
"(	c #007474",
"_	c #7C7C7C",
":	c #B8E8E8",
"<	c #8C8C8C",
"[	c #B4B4B4",
"}	c #989898",
"|	c #004040",
"1	c #646464",
"2	c #383838",
"     .....+++.+++.+.+.+............                           @.",
"#  $$# ....+.+.+.+++++.+.+.+.+................           $$#  @.",
"%#$&*=-  .. ..+.+.+.+++++++.+.+.+.+.+...................$&*=- @.",
"%%$*#=-    . ......+.+.+++++++++++.+.+.+.+.+............$*#=-.@.",
"=%%#=- ##     . . ....+.+.+++++++++++++++.+.+.+.+.+......#=-  @.",
"===%%;#####>   > . >...>.+.>.++>+++>+++>+++>++.>.+.>.+.+......@.",
"====%%;;#####     . . ......+.+.+++++++++++++++++++++.+.+.+.+.@.",
"======%%;;,,,,,,,,,,,,,,,,,,,,,,,,,,,,,,,,,,,,,,,,,,'+++++.+.+@.",
")======%%%,@@@@@@@@,,,,,,,,,,,,,,,,,,,,,,,,,,,,,,,,$'+++++++++@.",
"))=!!#===%,@;;%   #      . . ........+.+.+.++++++++*'++++$$# +@.",
"-)!*+=,===,@%%;; % %#       . . . . ....+.+.+.+++++*'+++$&*=-+@!",
"--%+#=,===,@=%%;;;%   #        . ............+.+.++*'+++$*#=-+@!",
"---%=,,)==>@%=%%%;;; % %#       . . . . ........+.+*'+++.#=- +@!",
"---,,,-=)=>@==%%%%%;; %   #        . . ............*'+.+++++++@!",
"~----))-))>@==>{{{{{{{{{{{{{{{{{{{{{{{{{{{{{{{{{{,.*'.+.+.++++@!",
"~~----))))>@=={]^^^^^^^^^^^^^^^^^^^^^^^^^^^^^^^^]{.*'....+.+.+@!",
"~~~----)))>@=={^]{{{{{{{{{{{{{{{{{{{{{{{{{{{{{{]^{.*'.......+.@!",
"~~)%%=--))>@)={^{/{/{//{//{{//{{{/{///{//{/{/{/{^{.*'... $$# .@#",
"(~%.#=,--)>@)){^{/{/{/{{/{/{/{/{/{/{/{{/{{///{/{^{.*' ..$&*=-.@#",
"(~=##~@--->@)){^{/{/{//{//{{//{{/{/{/{{//{///{/{^{ *'...$*#=-.@#",
"((,~,,@~--@@)-{^{/{/{/{{/{/{/{/{/{/{/{{/{{/{/{{{^{ *' . .#=- .@#",
"((>@@@>-~-@@-){^{{/{{//{/{/{//{{{/{{/{{//{/{/{/{^{ *'. .......@#",
",(((~~~~-~@@--{^{{{{{{{{{{{{{{{{{{{{{{{{{{{{{{{{^{ *'   . . . @#",
",(((~~~~~-@@--{^{{{{{{{{{{{{{{{{{{{{{{{{{{{{{{{{^{ *'      . .@#",
">,((((~~~~@@--{^{{{{{{{{{{{{{{{{{{{{{{{{{{{{{{{{^{ *'       . @#",
">,-%=)(~~~@@--{^{{{{{___{_{_____{__{______{__{{{^{#$'    $$#  @#",
">>%.%=,(~~@@--{^{{{{{{{{{{{{{{{{{{{{{{{{{{{{{{{{^{ $'   $&*=- @#",
",>=%=,@((~@@~-{^{{{______{___{__{_____{______{{{^{%$: # $*#=- @#",
"(,,,,@@(~~@@-~{^{{{{{{{{{{{{{{{{{{{{{{{{{{{{{{{{^{;$:% %.#=-  @#",
"(,>@@@>((~@@~-{^{{{___{_______{___{_{____{___{{{^{;$: %   #   @#",
"~(,>>,((((@@~~{^{{{{{{{{{{{{{{{{{{{{{{{{{{{{{{{{^{;$:;;% % %# @#",
"~(,>>,,(((@@~~{^{{{{{{{{{{{{{{{{{{{{{{{{{{{{{{{{^{%$:;%;; %  #@%",
"~~(,>>,(((@@~~{^{{{{{___{________{_{__{___{__{{{^{%$:%;;;;;% %@%",
"~~-=->>,((@@(~{^{{{{{{{{{{{{{{{{{{{{{{{{{{{{{{{{^{%$:%%% $$# #@%",
"~~=#%-,,,(@@(({^{{{__{_____{____{________{___{{{^{%+*%%%$&*=-;@%",
"-~=%=,@>,(@@(({^{{{{{{{{{{{{{{{{{{{{{{{{{{{{{{{{^{%+*%%%$*#=-%@%",
"-~,,,@@>>,@@(({^{{{____{__________{_{____{___{{{^{%+*%%%%#=- ;@%",
"-->@@@>>>,@@(({^{{{{{{{{{{{{{{{{{{{{{{{{{{{{{{{{^{=+*%%%%%%%%%@=",
"--~~((,>>>@@(({^{{{___{__{_____{_{__{______{_{{{^{%+*%%%%%%%%%@=",
"--~~~(,,>>@@(({^{{{{{{{{{{{{{{{{{{{{{{{{{{{{{{{{^{=+$%%%%%%%%%@=",
"---~~((,,>@@,({^{{{____{_{____{___{_____{____{{{^{=+$=%%%=%%%%@=",
"--)%=~,,,>@@,,{^{{{{{{{{{{{{{{{{{{{{{{{{{{{{{{{{^{=+$==% ++#=%@=",
")-%.%=,(,,@@>,{^{{{{{{{{{{{{{{{{{{{{{{{{{{{{{{{{^{=+$=%=+*$=-%@=",
")-=%=,@(,,@@>,{^{{{{{{{{{{{{{{{{{{{/</<[/}/[/{{{^{=.$===.$$=-%@=",
")),,,@@((,@@>>{^]{{{{{{{{{{{{{{{{{{{{{{{{{{{{{{]^{=.$====#=-==@=",
"))>@@@>((,@@>>{]^^^^^^^^^^^^^^^^^^^^^^^^^^^^^^^^]{=.$======%==@=",
"))---~~~((@@>>@{{{{{{{{{{{{{{{{{{{{{{{{{{{{{{{{{{,=.+=======%=@=",
")))--~~~((@@,>>>,,(((((~(~~~~~~-~--------)-)))))))).+=========@=",
")))---~~~(@@,>>>>,((((((~(~~~~~~-~------)-)-)-)))))!+=========@=",
")))%==-~~(@@,,>>>,,((((((~(~~~~~~-~--------)-))))))!+=)==..#==@=",
"))%.%=,~~(@@,,,>>>,,((((((~(~~~~~~-~------)-)-)-)))#+)=).*+=-=@=",
"))=%=,@~~~@@,,,>>>>,(((((((~(~~~~~~-~--------)-))))#.))=.+#),=@=",
"=),,,@@~~~@@(,,,>>>,>(((((((~~~~~~~~-~------)-)-)-)#.)))=#=-,=@=",
"=)>@@@>-~~@>===))))))))======================%%%%###.))))=,,==@=",
"=))))---~~@)%%=============%%%%%%%##############!....)))))====@=",
"=))))----~~(((,,,>>>>,>((((((~~~~~~~~~--~--------)-)))))))))==@=",
"=))))----~~|(((|,,>|>>,|(((|((~|~~~|~~~|-~-|---|)-)|)-)))))))=@=",
"==-%%~---~~~(((,,,,>>>>,(((((((~~~~~~~~~~-~--------)-))))##=))@=",
"==%+!->---~~~(((,,,>>>>,>(((((((~(~~~~~~~~-~------)-)-)-#$.=,)@=",
"==%!)>@---~~~(((,,,,>>>>,,(((((((~(~~~~~~~~-~--------)-)#.#),)@=",
"==->>@@----~~~(((,,,>>>>>,((((((((~(~~~~~~~~-~------)-)-))),,)@=",
"==>@@@,----~~~(((,,,,>>>>,>((((((((~(~~~~~~~~-~--------)-,,,))@=",
"1111111111111111111111111111111111111111111111111111111111111111",
"2222222222222222222222222222222222222222222222222222222222222222"};
