/* XPM */
static char * war_cross_xpm[] = {
"64 64 28 1",
" 	c #6C4824",
".	c #905C34",
"+	c #543C1C",
"@	c #382C14",
"#	c #28200C",
"$	c #483818",
"%	c #744C28",
"&	c #5C4020",
"*	c #E4D800",
"=	c #9C9C00",
"-	c #B4AC00",
";	c #FCF400",
">	c #CCC400",
",	c #000000",
"'	c #202020",
")	c #2C2C2C",
"!	c #848400",
"~	c #A8A8A8",
"{	c #989898",
"]	c #000058",
"^	c #484848",
"/	c #7C7C7C",
"(	c #8C8C8C",
"_	c #383838",
":	c #646464",
"<	c #00004C",
"[	c #545454",
"}	c #403018",
"                                                                ",
"................................................................",
"+++++++@+#@++++++++++++++@+#@++++@+#@++++++@+#@+++++++++++@+#@++",
"$$ %%%%+.#+.&$$$$%%$ $ ****#+.%$%+.#****$$&+.#+.$%$$%$%$%%+.#+. ",
"$$ %%%&+.#+. $$$+%%$ $ $$==****$****==$$$&%+.#+.$%$$%$%$%%+.#+. ",
"$$&%%%++.#+.%+$$+%%$--*;*+.#*******#$&=>;;;+&#+.$%$$%$%$%%+.#+. ",
"+$+ %%++.#+.%+$$&>*; -*;;*>>-------;;;;;>;&>;;+&$%$$%$%$%%+.#+. ",
" $$&%&$+.#+.%&$+>-*;;;;====-=,,,''=-==--;;;>>;;$$&$$%$%$ %+.#+.+",
" $+$&+$+.#+.% -*%>;;===--*;,,'''''''=>>>-==;;;@>;$@$%$%$ %+.#+.+",
"%+$$+$$+.#+.%->;;;===*,--*;,,'))))))=>>;)==--;;>;;@$&$%$&%+.#+.+",
"%+$$$$++.#+.%>*;;=--*;,--*,''))))))))>;;'=>>>=--;;@@$$%$&%+.#+.$",
" %$$$+%+.#+.->;===,-*,,,,,'')))))))))))'''>;'=>;->>@$$%+$%+.#+.$",
" %+$$+%+->==!>=-;,,,,''''')))))))))))))))))'');;>>!==>>+$%+.#+.$",
"&%%$+%%->;;;==,,,''''))))))))))))))))))))))))))''==!>>>;@ +.#+.$",
"+%%%+%&>;;;--=,,'))~~~~~~~~~~~~~~~~~~~~~~~~~)))))=>;->;;@&+.#+.+",
"$ %%&%++=;-->*;,')){]]]]]]]]]]]]]]]]]]]]]]]{))))=>>>;-=@@$+.#+.+",
"$ %%%%+-;;=>*;;,'))^{^/(((((((((((((((((/^{^))))>>>;;-=>@$+.#+.+",
"$& %%%->;-=,;;,,'))_:/](^<<<<<<<<<<<<<^(]/:_)))));;$=;->;$+.#+. ",
"$+ %%&>;;=>;,,,'))))^{^/:<<<<<<<<<<<<<:/^{^))))))))=>;-;;$+%#+. ",
"$$&%%+$;-**;,'')))))_:/]/^<<<<<<<<<<<^/]/:_))))))));;;;-@@@ #+. ",
"$$+%%=-;=,*,'~{^_))))^{^(:<<<<<<<<<<<:(^{^))))_^{~));$;->>@&#+. ",
"+$+&+-;;=-,,'~]{:^_))_:/]/^<<<<<<<<<^/]/:_))_^:{]~)))--;>;@+#+. ",
"+$$+$>;;=-,''~]]/{:^_)^{^(:<<<<<<<<<:(^{^)_^:{/^]~)))-;;;;@+#+. ",
"+$$$$$>*=,,')~]/]^/{:^):/[/<<<<<<<<</[/:)^:{/^]/]~))));;>@@+#+.&",
" $$$==!,,,'))~]((/]^/{:){](^<<<<<<<^(]{):{/^]/((]~))))))!==+#+.+",
" $$->;;==,'))~](^:(/]^/{{^::<<<<<<<::^{{/^]/(:^(]~))))=>;!>;#+.+",
" +$>;;-=*;,')~](<<^:(/[]^/](<<<<<<<(]/^][/(:^<<(]~)))=>>;-;;#+.$",
"&+$$;;->*;,')~](<<<<^:/(:]](<<<<<<<(]]:(/:^<<<<(]~)));;;;-;+#+.$",
"+ $==;=>;,,')~](<<<<<<<^:/((<<<<<<<((/:^<<<<<<<(]~))));;;===#+.$",
"+ +>;;==,,'))~](<<<<<<<<<<<<<<<<<<<<<<<<<<<<<<<(]~)))))=;->;#+.$",
"$&+-;;=*;,'))~](<<<<<<<<<<<<<<<<<<<<<<<<<<<<<<<(]~))))=>;-;;#+.$",
"$+ +=;=*;,'))~](<<<<<<<<<<<<<<<<<<<<<<<<<<<<<<<(]~))));;;-=+#+.$",
"$+ ==;=,,,'))~](<<<<<<<<<<<<<<<<<<<<<<<<<<<<<<<(]~))))))====#+.$",
"$$&-;;=;'')))~](<<<<<<<<<<<<<<<<<<<<<<<<<<<<<<<(]~)))))=;-;;#+.+",
"$$+&;;=*+#@+@~](<<<<<<<<<<<<<<<<<<<<<<<<<<<<<<<(]~@@@@@>;-;}#+.+",
"$$$+@;-@+#@+@~](<<<<<<<<<<<<<<<<<<<<<<<<<<<<<<<(]~@@@@@@>>@}#+.&",
"$$$$@@@@+#@+@~](<<<<<<<^:/((<<<<<<<((/:^<<<<<<<(]~@@@}@@@@@+#+. ",
"$$$$$@@@+#+.%~](<<<<^:/(:]](<<<<<<<(]]:(/:^<<<<(]~@@}&$$$}++#+. ",
"+$$$$$++.#+. ~](<<^:/([]^/]/<<<<<<</]/^][(/:^<<(]~@@} $$ %+.#+. ",
"+$$$$$&+.#+. ~](^:/(]^/{{^::<<<<<<<::^{{/^](/:^(]~@@} $$&%+.#+.+",
" +$$$+&+.#+.&~]((/]^/{:@{](^<<<<<<<^(]{@:{/^]/((]~@@}%$$&%+.#+.+",
" +$$$+ +.#+.+~]/]^/{:@@:/[/<<<<<<<<</[/:@@:{/^]/]~@@}%+$+ +.#+.$",
" &+$+& +.#+.$~]]/{:@@@@{^(:<<<<<<<<<:(^{@@@@:{/^]~@@}%+$+ +.#+.$",
"  +++ &+.#+.$~]{:@@@@@:/]/^<<<<<<<<<^/]/:@@@+#:{]~@@}%+$+&+.#+.$",
"& &+& ++.#+.$~{@@@@@@@{^(:<<<<<<<<<<<:(^{@@@+#}+{~@@}%&$$&+.#+.$",
"+  &  ++.#+.$$@@@@@@@:/]/^<<<<<<<<<<<^(]/:@@+#}+@+@@}%&+$++.#+.$",
"+  &  $+.#+.$$$@@@@@%{^/:<<<<<<<<<<<<<:/^{@@.#}+@+@@}% +$++.#+.$",
"$ %%% $+.#+.+$$@@@@+:/](^<<<<<<<<<<<<<^(]/:@.#++@+@@}% +$++.#+.$",
"$&%%% $+.#+.+$$$@@$&{^/(((((((((((((((((/^{@+#+.$+}}} %&$$+.#+.$",
"$+ %% $+.#+.&$$$$$${]]]]]]]]]]]]]]]]]]]]]]]{+#+.$%$$$ %&+$+.#+.$",
"$+ %%&$+.#+. +$$$$$~~~~~~~~~~~~~~~~~~~~~~~~~+#+.$%$$$&% +$+.#+.+",
"$$&% &$+.#+.%+$$$$+%@@@@@@+#}+@@@@+#}+@@@@@@+#+.$%$$$&% &$+.#+.+",
"$$+  +$+.#+.%&$$$$&% @@@@@+#}+@@@@+#}+@@@@@@+#+.$%+$$+ %&++.#+.&",
"$$+ &+$+.#+.  +$$$ %&$@@@@+#}+@@@@+#}+@@@@@@+#+.$%+$$+&% ++.#+.&",
"$$$&&$$+.#+. %+$$+ %$$$ $+.#+.%%%+.#+.$& +$+.#+.$%+$$$&% ++.#+. ",
"$$$++$$+.#+.&% +$+%%$$$ $+.#+.%%%+.#+.$+&$$+.#+.$%+$$$+ %++.#+. ",
"+$$$$$++.#+.$ % +%% $$$ $+.#+.%%%+.#+.$$+$$+.#+.$ &$$$+&% +.#+.%",
"+$$$$$++.#+.$&%%%%%&$$$%$+.#+.%% +.#+.$$$$$+.#+.$  $$$$&% +.#+.%",
"&$$$$$ +.#+.$$%%%% $$$&%$+.#+.%% +.#+.$$$$$+.#+.$& +$$$+  +.#+.%",
"&+$$$+ +.#+.$$& % &$$$ %$+.#+.% &+.#+.$$$$$+.#+.$&%+$$$$&&+.#+.%",
" +$$$+ +.#+.$$$& &$$$$ %$+.#+.% &+.#+.$$$$$+.#+.$$%+$$$$$++.#+.%",
" &$$$+ +.#+.$$$$&$$$$ %%&+.#+. &$+.#+.$$$$$+.#+.&$%&$$$$$$+.#+.%",
"&&&&&&&+.#+.&$$$$$$$&&&&&+.#+.&$$+.#+.&$$$&+.#+.&$&&$$$$$$+.#+.&",
"))))))))))))))))))))))))))))))))))))))))))))))))))))))))))))))))"};
